<svg xmlns="http://www.w3.org/2000/svg" viewBox="0 0 1024 1024">
  <rect x="64" y="64" width="896" height="896" rx="224" fill="#20242c"/>
  <path d="M260 286c0-58 47-104 104-104h296c58 0 104 46 104 104v286c0 58-46 104-104 104H486L326 812v-136c-39-15-66-53-66-98V286Z" fill="#f4f7fb"/>
  <circle cx="430" cy="430" r="42" fill="#20242c"/>
  <circle cx="594" cy="430" r="42" fill="#20242c"/>
  <path d="M404 548c64 54 152 54 216 0" fill="none" stroke="#6278e8" stroke-width="42" stroke-linecap="round"/>
  <path d="m744 188 25 58 58 25-58 25-25 58-25-58-58-25 58-25 25-58Z" fill="#64d6a5"/>
</svg>
